<svg width="32" height="32" viewBox="0 0 32 32" fill="none" xmlns="http://www.w3.org/2000/svg">
<path d="M24.1 2.07202L29.664 7.87202V29.928H8.879V30H29.735V7.94502L24.1 2.07202Z" fill="#909090"/>
<path d="M24.031 2H8.80801V29.928H29.664V7.873L24.031 2Z" fill="#F4F4F4"/>
<path d="M8.65501 3.5H2.26501V10.327H22.365V3.5H8.65501Z" fill="#7A7B7C"/>
<path d="M22.472 10.211H2.39499V3.37903H22.472V10.211Z" fill="#DD2025"/>
<path d="M9.052 4.53398H7.745V9.33398H8.77299V7.71498L9 7.72798C9.22064 7.72494 9.43926 7.68541 9.647 7.61098C9.82962 7.54897 9.99746 7.4499 10.14 7.31998C10.2862 7.19742 10.401 7.04179 10.475 6.86598C10.5762 6.57469 10.6121 6.26469 10.58 5.95798C10.5743 5.73883 10.5359 5.52177 10.466 5.31398C10.403 5.16379 10.3094 5.0284 10.1911 4.91647C10.0728 4.80454 9.93244 4.71855 9.779 4.66398C9.64671 4.61499 9.50961 4.58013 9.37 4.55998C9.26453 4.54281 9.15785 4.53411 9.05099 4.53398M8.862 6.82798H8.77299V5.34798H8.96599C9.05117 5.34184 9.13665 5.35491 9.21609 5.38624C9.29554 5.41757 9.36693 5.46635 9.425 5.52898C9.54531 5.68999 9.60959 5.88598 9.608 6.08698C9.608 6.33298 9.60799 6.55598 9.38599 6.71298C9.2261 6.80105 9.04403 6.84167 8.862 6.82798ZM12.533 4.52098C12.422 4.52098 12.314 4.52898 12.238 4.53198L12 4.53798H11.22V9.33798H12.138C12.4888 9.347 12.838 9.28756 13.166 9.16298C13.4301 9.05868 13.6639 8.88987 13.846 8.67198C14.0244 8.45313 14.1519 8.19726 14.219 7.92298C14.2979 7.61291 14.3362 7.29391 14.333 6.97398C14.3526 6.59614 14.3233 6.21734 14.246 5.84698C14.172 5.57467 14.0349 5.32358 13.846 5.11398C13.6978 4.94449 13.5155 4.80819 13.311 4.71398C13.1358 4.63278 12.9515 4.57301 12.762 4.53598C12.6866 4.52363 12.6103 4.51794 12.534 4.51898M12.352 8.45598H12.252V5.39198H12.265C12.4712 5.36814 12.6798 5.40535 12.865 5.49898C13.0007 5.60731 13.1112 5.74378 13.189 5.89898C13.273 6.06232 13.3213 6.24159 13.331 6.42498C13.34 6.64498 13.331 6.82498 13.331 6.97398C13.3347 7.14561 13.3237 7.31724 13.298 7.48698C13.2665 7.66105 13.2096 7.82952 13.129 7.98698C13.0379 8.13382 12.9136 8.25715 12.766 8.34698C12.6427 8.42698 12.4965 8.46423 12.35 8.45298M17.43 4.53798H15V9.33798H16.028V7.43398H17.328V6.54198H16.028V5.42998H17.428V4.53798" fill="#464648"/>
<path d="M21.781 20.255C21.781 20.255 24.969 19.677 24.969 20.766C24.969 21.855 22.994 21.412 21.781 20.255ZM19.424 20.338C18.9174 20.4496 18.4238 20.6135 17.951 20.827L18.351 19.927C18.751 19.027 19.166 17.8 19.166 17.8C19.6421 18.6041 20.1976 19.3586 20.824 20.052C20.3524 20.1223 19.885 20.2184 19.424 20.34V20.338ZM18.162 13.838C18.162 12.889 18.469 12.63 18.708 12.63C18.947 12.63 19.216 12.745 19.225 13.569C19.147 14.3976 18.9735 15.2143 18.708 16.003C18.343 15.3413 18.1546 14.5967 18.161 13.841L18.162 13.838ZM13.513 24.354C12.535 23.769 15.564 21.968 16.113 21.91C16.11 21.911 14.537 24.966 13.513 24.354ZM25.9 20.895C25.89 20.795 25.8 19.688 23.83 19.735C23.0088 19.7206 22.188 19.7785 21.377 19.908C20.5909 19.1167 19.9142 18.2238 19.365 17.253C19.7108 16.2523 19.9203 15.2096 19.988 14.153C19.959 12.953 19.672 12.265 18.752 12.275C17.832 12.285 17.698 13.09 17.819 14.288C17.9374 15.0931 18.161 15.8791 18.484 16.626C18.484 16.626 18.059 17.949 17.497 19.265C16.935 20.581 16.551 21.271 16.551 21.271C15.5736 21.5888 14.6535 22.0615 13.826 22.671C13.002 23.438 12.667 24.027 13.101 24.616C13.475 25.124 14.784 25.239 15.954 23.706C16.5746 22.9134 17.1425 22.081 17.654 21.214C17.654 21.214 19.438 20.725 19.993 20.591C20.548 20.457 21.219 20.351 21.219 20.351C21.219 20.351 22.848 21.99 24.419 21.932C25.99 21.874 25.914 20.993 25.904 20.897" fill="#DD2025"/>
<path d="M23.954 2.07703V7.95003H29.587L23.954 2.07703Z" fill="#909090"/>
<path d="M24.031 2V7.873H29.664L24.031 2Z" fill="#F4F4F4"/>
<path d="M8.975 4.45702H7.668V9.25702H8.7V7.63902L8.928 7.65202C9.14864 7.64897 9.36726 7.60944 9.575 7.53502C9.75762 7.47301 9.92546 7.37394 10.068 7.24402C10.2131 7.12112 10.3269 6.96551 10.4 6.79002C10.5012 6.49873 10.5371 6.18872 10.505 5.88202C10.4993 5.66287 10.4609 5.4458 10.391 5.23802C10.328 5.08782 10.2344 4.95243 10.1161 4.84051C9.99781 4.72858 9.85744 4.64258 9.704 4.58802C9.57111 4.53854 9.43333 4.50335 9.293 4.48302C9.18753 4.46584 9.08086 4.45715 8.974 4.45702M8.785 6.75102H8.696V5.27102H8.89C8.97518 5.26487 9.06065 5.27795 9.1401 5.30928C9.21955 5.34061 9.29094 5.38939 9.349 5.45202C9.46932 5.61303 9.53359 5.80902 9.532 6.01002C9.532 6.25602 9.532 6.47902 9.31 6.63602C9.15011 6.72409 8.96803 6.7637 8.786 6.75002M12.456 4.44402C12.345 4.44402 12.237 4.45202 12.161 4.45502L11.926 4.46102H11.146V9.26101H12.064C12.4148 9.27004 12.764 9.2106 13.092 9.08602C13.3561 8.98171 13.5899 8.81291 13.772 8.59502C13.9504 8.37617 14.0779 8.1203 14.145 7.84602C14.2239 7.53594 14.2622 7.21695 14.259 6.89702C14.2786 6.51917 14.2493 6.14038 14.172 5.77002C14.098 5.4977 13.9609 5.24662 13.772 5.03702C13.6238 4.86753 13.4415 4.73122 13.237 4.63702C13.0618 4.55581 12.8775 4.49605 12.688 4.45902C12.6126 4.44666 12.5364 4.44097 12.46 4.44202M12.278 8.37901H12.178V5.31502H12.191C12.3972 5.29118 12.6058 5.32838 12.791 5.42202C12.9267 5.53034 13.0372 5.66681 13.115 5.82202C13.199 5.98535 13.2474 6.16462 13.257 6.34802C13.266 6.56802 13.257 6.74802 13.257 6.89702C13.2607 7.06864 13.2497 7.24027 13.224 7.41002C13.1925 7.58408 13.1356 7.75256 13.055 7.91002C12.964 8.05686 12.8396 8.18019 12.692 8.27002C12.5687 8.35002 12.4225 8.38727 12.276 8.37602M17.353 4.46102H14.923V9.26101H15.951V7.35702H17.251V6.46502H15.951V5.35302H17.351V4.46102" fill="white"/>
</svg>
